<?xml version="1.0" encoding="UTF-8"?>
<!DOCTYPE svg PUBLIC "-//W3C//DTD SVG 1.1//EN" "http://www.w3.org/Graphics/SVG/1.1/DTD/svg11.dtd">
<!-- Creator: CorelDRAW -->
<svg xmlns="http://www.w3.org/2000/svg" xml:space="preserve" width="6.82666in" height="6.82666in" style="shape-rendering:geometricPrecision; text-rendering:geometricPrecision; image-rendering:optimizeQuality; fill-rule:evenodd; clip-rule:evenodd"
viewBox="0 0 6.82666 6.82666"
 xmlns:xlink="http://www.w3.org/1999/xlink">
 <defs>
  <style type="text/css">
   <![CDATA[
    .fil0 {fill:#9E9E9E}
    .fil1 {fill:#FFFFFE}
   ]]>
  </style>
 </defs>
 <g id="Layer_x0020_1">
  <metadata id="CorelCorpID_0Corel-Layer"/>
  <rect class="fil0" width="6.82666" height="6.82666" rx="0.853335" ry="0.853335"/>
  <g id="_426009320">
   <g>
    <path id="_426009416" class="fil1" d="M3.91653 4.90285c-0.00501575,0.0099685 -0.0676142,0.118472 -0.0730354,0.128807 -0.0943071,0.163343 -0.217429,0.310047 -0.311736,0.473386 -0.0633819,0.109787 0.16826,0.238929 0.227705,0.135969l0.256047 -0.510039c0.00627953,-0.0102283 0.0690157,-0.119055 0.0752677,-0.128638 -0.0127598,-0.00859449 -0.0260709,-0.0170787 -0.0395906,-0.0253583l-0.376744 0.540047 0.283343 -0.591146 0.000913386 -0.0012874c-0.0151181,-0.00799606 -0.029374,-0.015311 -0.0421693,-0.0217402z"/>
    <path id="_426009488" class="fil1" d="M5.1703 2.93219c-0.45011,0.358169 -0.486626,0.168535 -0.486626,0.168535 -0.145976,0.252839 -0.23115,-0.0210866 -0.23115,-0.0210866 -0.328445,0.653169 -0.328465,0.316043 -0.328465,0.316043 -0.158126,0.526756 -0.231161,-0.18965 -0.231161,-0.18965 -0.133815,0.147484 -0.255504,-0.316075 -0.255504,-0.316075l-0.121646 0.210701c-0.0121535,0.273913 -0.194634,0.337118 -0.194634,0.337118 0.0365118,0.358201 -0.133823,0.147484 -0.133823,0.147484 0.133858,0.526776 -0.244772,0.286748 -0.244772,0.286748 -0.134059,-0.0188701 -0.219406,-0.144047 -0.219406,-0.144047 -0.0186142,0.0377205 0.0405118,0.368154 0.0874409,0.34861 0.0469331,-0.0195433 0.188323,0.127933 0.128921,0.156736 -0.0594055,0.0288031 -0.0599882,0.168382 -0.0599882,0.168382 0.0459449,0.0960276 -0.185331,0.161858 -0.185331,0.161858 0.0786102,0.0722874 0.274209,0.0752323 0.274209,0.0752323 0.291984,1.9685e-005 0.133843,0.189646 0.133843,0.189646 0.0608228,-0.0210709 0.25548,-0.0210591 0.523134,0.0210984 0.144161,0.0227047 0.191665,0.0399291 0.315807,0.105177l0.000728346 -0.00129921 0.0528228 -0.0864606c0.0218346,-0.430661 -0.165575,-0.561724 -0.286319,-0.741079 -0.134921,0.0595866 -0.32498,0.0149173 -0.381563,-0.0415945 0.0926457,0.0291811 0.27678,0.0630512 0.35561,0.000181102 -0.0637992,-0.110193 -0.0977598,-0.245795 -0.0467402,-0.476327 -0.016878,0.401142 0.116575,0.509205 0.238772,0.658823 0.0932913,-0.0377087 0.155642,-0.213189 0.176618,-0.307661 0.0201969,0.0755591 -0.0332638,0.256008 -0.147004,0.345343 0.074185,0.0986654 0.138913,0.22398 0.155295,0.456465l0.469205 -0.76798c-0.144618,-0.104465 -0.239394,-0.393724 -0.136449,-0.57626 -0.0138031,0.0944606 -0.0387874,0.383228 0.163551,0.531894l0.503945 -0.824846 -0.584201 1.07252c0.226768,0.0918976 0.458602,-0.070189 0.532421,-0.128516 -0.104465,0.176795 -0.39261,0.240417 -0.557311,0.174209l-0.264165 0.484984c0.212283,-0.0978386 0.358382,-0.103823 0.486138,-0.0882717 0.0223425,-0.156118 0.163606,-0.304984 0.245969,-0.327106 -0.0777756,0.0713228 -0.209488,0.22587 -0.194236,0.334528 0.207909,0.0338189 0.382717,0.100925 0.752323,-0.13372 -0.189878,0.173874 -0.336449,0.215732 -0.475295,0.215567 -0.0163898,0.108717 0.115996,0.26413 0.194055,0.335709 -0.0842165,-0.0226181 -0.230016,-0.177744 -0.247307,-0.337642 -0.228472,-0.0157795 -0.448224,-0.115807 -0.822488,0.112626l-0.0914291 0.167854 0 3.93701e-006c0.113508,0.067878 0.164626,0.11876 0.248228,0.222189 0.170339,0.210717 0.267673,0.379283 0.279839,0.4425 0,0 0.0851535,-0.231772 0.231161,0.0210787 0,0 0.100346,0.167925 0.202256,0.199858 0,0 -0.058622,-0.233201 0.0475118,-0.241425 0,0 0.120587,-0.0702992 0.115827,-0.136146 -0.00475591,-0.0658465 0.193661,-0.0171299 0.200193,0.0332795 0.00653937,0.0504134 0.322268,-0.0635945 0.345634,-0.0985748 0,0 -0.151087,-0.0113228 -0.234457,-0.117988 0,0 -0.397181,-0.20789 0.125945,-0.355354 0,0 -0.267654,-0.0421535 0.0608228,-0.189634 0,0 -0.0365118,-0.189638 0.19463,-0.337118 0.0405512,-0.0702283 0.0810984,-0.140469 0.12165,-0.210701 0,0 -0.462299,0.126394 -0.40148,-0.0632362 0,0 -0.656941,0.294957 -0.279823,-0.105362 0,0 -0.291972,0.168543 0.109465,-0.44248 0,0 -0.279815,0.0631969 -0.133831,-0.189638 0,0 -0.182488,0.0631929 -0.0973661,-0.505705z"/>
   </g>
   <g>
    <path id="_426009104" class="fil1" d="M2.72338 2.76451c0.00455512,0.00906693 0.0614724,0.10772 0.0664016,0.117114 0.0857402,0.148512 0.197685,0.281894 0.283429,0.430406 0.057626,0.099815 -0.15298,0.217232 -0.207028,0.123618l-0.232799 -0.463728c-0.00570866,-0.00929921 -0.062748,-0.10824 -0.0684331,-0.116957 0.0115984,-0.00781496 0.0237047,-0.0155276 0.0359961,-0.0230551l0.342535 0.491012 -0.257614 -0.537469 -0.000830709 -0.00116929c0.0137441,-0.00727165 0.0267047,-0.0139252 0.0383425,-0.0197717z"/>
    <path id="_426009080" class="fil1" d="M1.58345 0.972783c0.409244,0.32565 0.442441,0.153232 0.442441,0.153232 0.13272,0.229882 0.210161,-0.0191693 0.210161,-0.0191693 0.298622,0.593862 0.298642,0.287343 0.298642,0.287343 0.143764,0.478929 0.210169,-0.172429 0.210169,-0.172429 0.121665,0.134094 0.232303,-0.287374 0.232303,-0.287374l0.110602 0.191571c0.0110512,0.249039 0.176961,0.306504 0.176961,0.306504 -0.0331969,0.325677 0.121673,0.134094 0.121673,0.134094 -0.121705,0.478945 0.222543,0.260713 0.222543,0.260713 0.121886,-0.0171575 0.199484,-0.130969 0.199484,-0.130969 0.0169252,0.0342913 -0.0368346,0.334724 -0.0795039,0.316953 -0.0426693,-0.0177677 -0.17122,0.116319 -0.117213,0.142508 0.0540118,0.026189 0.0545433,0.153091 0.0545433,0.153091 -0.0417756,0.087311 0.1685,0.147165 0.1685,0.147165 -0.0714724,0.0657205 -0.249311,0.0683976 -0.249311,0.0683976 -0.265472,1.5748e-005 -0.121689,0.172425 -0.121689,0.172425 -0.0553031,-0.0191535 -0.23228,-0.0191457 -0.47563,0.019185 -0.131075,0.0206417 -0.174264,0.0363031 -0.287134,0.095626l-0.000665354 -0.0011811 -0.0480236 -0.0786102c-0.0198504,-0.391555 0.150539,-0.51072 0.260319,-0.673787 0.122669,0.0541772 0.295472,0.013563 0.346917,-0.037815 -0.0842323,0.0265276 -0.251646,0.0573228 -0.323319,0.000161417 0.0580079,-0.100185 0.0888819,-0.223476 0.0424961,-0.433075 0.0153465,0.364717 -0.105992,0.462969 -0.217091,0.599 -0.0848228,-0.0342835 -0.141508,-0.193831 -0.160583,-0.279724 -0.0183622,0.0686969 0.0302441,0.23276 0.133657,0.313984 -0.0674528,0.0897047 -0.126299,0.203646 -0.141197,0.41502l-0.426598 -0.698248c0.131488,-0.0949803 0.217657,-0.357976 0.124059,-0.523937 0.0125472,0.0858819 0.0352677,0.348429 -0.148701,0.483594l-0.458185 -0.749945 0.531154 0.975138c-0.206177,0.0835512 -0.416961,-0.0638189 -0.484075,-0.116846 0.0949764,0.16074 0.356961,0.218587 0.506705,0.15839l0.240181 0.440945c-0.193008,-0.0889528 -0.325843,-0.0943937 -0.441996,-0.0802559 -0.0203189,-0.141941 -0.148752,-0.277291 -0.223638,-0.297406 0.0707126,0.0648465 0.190469,0.205362 0.176602,0.304154 -0.189035,0.030748 -0.347965,0.0917598 -0.684016,-0.121579 0.172642,0.158087 0.305902,0.196146 0.432142,0.195992 0.0148976,0.0988465 -0.105465,0.24015 -0.176437,0.305228 0.0765709,-0.0205669 0.209134,-0.161606 0.22485,-0.306984 0.207732,-0.0143465 0.407528,-0.105291 0.747807,0.102402l0.083126 0.15261 3.93701e-006 3.93701e-006c-0.103205,0.0617126 -0.149681,0.107976 -0.225693,0.202016 -0.15487,0.191583 -0.243366,0.344843 -0.254429,0.402319 0,0 -0.0774173,-0.210728 -0.210169,0.0191654 0,0 -0.0912362,0.152677 -0.18389,0.181713 0,0 0.0532992,-0.212028 -0.0431969,-0.219508 0,0 -0.109638,-0.0639134 -0.105311,-0.12378 0.00432283,-0.0598701 -0.176075,-0.0155748 -0.182016,0.0302559 -0.00594882,0.0458386 -0.293004,-0.0578228 -0.314252,-0.089626 0,0 0.13737,-0.0102913 0.213169,-0.107272 0,0 0.361118,-0.189016 -0.114508,-0.323091 0,0 0.24335,-0.0383228 -0.0552992,-0.172413 0,0 0.0331969,-0.172417 -0.176961,-0.306508 -0.0368701,-0.0638504 -0.0737323,-0.127713 -0.110602,-0.191567 0,0 0.420323,0.114917 0.365028,-0.0574961 0,0 0.597291,0.268173 0.254413,-0.0957953 0,0 0.265461,0.15324 -0.0995276,-0.402303 0,0 0.254409,0.0574606 0.121681,-0.172421 0,0 0.165917,0.0574567 0.0885236,-0.459783z"/>
   </g>
  </g>
 </g>
</svg>
